<?xml version="1.0" standalone="no"?>
<!DOCTYPE svg PUBLIC "-//W3C//DTD SVG 1.1//EN"
  "http://www.w3.org/Graphics/SVG/1.1/DTD/svg11.dtd">
<svg version="1.1" xmlns="http://www.w3.org/2000/svg" xmlns:xlink="http://www.w3.org/1999/xlink" width="1280" height="720" viewBox="-2026.1666666666665 -170 1429.3333333333333 804" id="ccdiagram"><filter id="grayscale"><feColorMatrix type="saturate" values="0"></feColorMatrix></filter><filter id="highlight"><feColorMatrix type="matrix" color-interpolation-filters="sRGB" values="0.20338 0 0 0 0
                0 0.58474 0 0 0
                0 0 0.97033 0 0
                0 0 0 1 0"></feColorMatrix></filter><defs><style type="text/css">@import url('https://fonts.googleapis.com/css?family=Open+Sans:400,700|Inconsolata:400');</style></defs><g><rect x="-2026.1666666666665" y="-170" width="1429.3333333333333" height="804" fill="#ffffff" id="interactionLayer"></rect><g pointer-events="auto"></g><g pointer-events="auto"></g><g pointer-events="auto"></g><g pointer-events="auto"></g><g pointer-events="auto"><g><g class="cloud-maps_raptor_node" id="1063814395"><g><g><polygon transform="translate(-1390,-119) matrix(-0.707 -0.409 0.707 -0.409 0 0)" points="-992.2365000000001 -770.634, -992.2365000000001 0, 0 0, 0 -770.634" stroke-width="11.2" stroke="#3949ab" stroke-dasharray="32" fill="none"></polygon></g><g><polygon points="-1390 -119, -1422 -138, -1646 -8, -1646 29" stroke="#3949ab" stroke-width="8" fill="#3949ab"></polygon><text font-family="Inconsolata" font-size="20pt" font-weight="bold" fill="#ffffff" transform="translate(-1415 -115) matrix(0.707 -0.409 0.707 0.409 0 0)" text-anchor="end">us-east-1</text></g></g></g></g></g><g pointer-events="auto"></g><g pointer-events="auto"></g><g pointer-events="auto"></g><g pointer-events="auto"></g><g pointer-events="auto"></g><g pointer-events="none"></g><g pointer-events="auto"><g id="af024cd5-943e-4122-809b-c2a7d500b13e-a00ae052-5b04-46f0-b90d-495432a0ad08"><g cursor="cell"><line x1="-1552" y1="194" x2="-1387" y2="116" stroke="red" stroke-width="8" opacity="0"></line><line x1="-1552" y1="194" x2="-1387" y2="116" stroke="#000000" stroke-width="2" stroke-linecap="round"></line><polygon points="-1376 111, -1402 115, -1390 117, -1388 125, -1376 111" stroke-linejoin="round" fill="#000000" stroke="#000000" stroke-width="1"></polygon></g></g><g id="a00ae052-5b04-46f0-b90d-495432a0ad08-6f81c705-9433-4bf0-ab67-585f2685847f"><g cursor="cell"><line x1="-1312" y1="111" x2="-1066" y2="253" stroke="red" stroke-width="8" opacity="0"></line><line x1="-1312" y1="111" x2="-1066" y2="253" stroke="#000000" stroke-width="2" stroke-linecap="round"></line><polygon points="-1056 259, -1065 244, -1068 252, -1082 254, -1056 259" stroke-linejoin="round" fill="#000000" stroke="#000000" stroke-width="1"></polygon></g></g></g><g pointer-events="auto"><g><g class="cloud-maps_raptor_node" id="a00ae052-5b04-46f0-b90d-495432a0ad08"><svg x="-1392" y="7" width="96" height="113.438"><g transform="translate(412.599 -86.957)"><path fill="#3c3c3c" d="M-411.594 145.123v18.088l31.33 18.089h31.33l31.33-18.089v-18.088l-31.33-18.089h-31.33z" fill-rule="evenodd"></path><path fill="#090909" d="m-348.934 181.3 31.33-18.089V181.3l-31.33 18.088z" fill-rule="evenodd"></path><path fill="#232323" d="M-380.264 181.3h31.33v18.088h-31.33zm-31.33-18.089V181.3l31.33 18.088V181.3z" fill-rule="evenodd"></path><path fill="none" stroke="#000" d="m-411.594 163.211 31.33 18.089h31.33l31.33-18.089m-62.66 18.089v18.088m31.33-18.088v18.088" stroke-width="1.005"></path><path fill="none" stroke="#000000" d="M-411.594 145.123V181.3l31.33 18.088h31.33l31.33-18.088v-36.177l-31.33-18.089h-31.33z" stroke-width="2.01"></path><path fill="#3c3c3c" d="M-411.594 125.588v18.088l31.33 18.089h31.33l31.33-18.089v-18.088l-31.33-18.089h-31.33z" fill-rule="evenodd"></path><path fill="#090909" d="m-348.934 161.765 31.33-18.089v18.089l-31.33 18.088z" fill-rule="evenodd"></path><path fill="#232323" d="M-380.264 161.765h31.33v18.088h-31.33zm-31.33-18.089v18.089l31.33 18.088v-18.088z" fill-rule="evenodd"></path><path fill="none" stroke="#000" d="m-411.594 143.676 31.33 18.089h31.33l31.33-18.089m-62.66 18.089v18.088m31.33-18.088v18.088" stroke-width="1.005"></path><path fill="none" stroke="#000000" d="M-411.594 125.588v36.177l31.33 18.088h31.33l31.33-18.088v-36.177l-31.33-18.089h-31.33z" stroke-width="2.01"></path><path fill="#3c3c3c" d="M-411.594 106.05v18.09l31.33 18.088h31.33l31.33-18.089v-18.088l-31.33-18.089h-31.33z" fill-rule="evenodd"></path><path fill="#090909" d="m-348.934 142.228 31.33-18.089v18.089l-31.33 18.088z" fill-rule="evenodd"></path><path fill="#232323" d="M-380.264 142.228h31.33v18.088h-31.33zm-31.33-18.088v18.088l31.33 18.088v-18.088z" fill-rule="evenodd"></path><path fill="none" stroke="#000" d="m-411.594 124.14 31.33 18.088h31.33l31.33-18.089m-62.66 18.089v18.088m31.33-18.088v18.088" stroke-width="1.005"></path><path fill="none" stroke="#000000" d="M-411.594 106.05v36.178l31.33 18.088h31.33l31.33-18.088V106.05l-31.33-18.089h-31.33z" stroke-width="2.01"></path><circle cx="-95.405" cy="325.596" r="21.926" fill="#f4b934" transform="scale(1.22475 .7071) rotate(45)"></circle><g><path fill="#ffffff" d="m-127.434 301.586-.302-.818q-.136-.375-.321-.512-.18-.136-.638-.136h-.545v-1.144h1.007q.887 0 1.364.375.482.375.813 1.26l2.23 5.94h-1.744l-1.085-2.862-1.144 2.862h-1.743z" transform="matrix(3.51718 2.03071 -3.51718 2.03071 1146.824 -241.7)" font-family="Droid Serif" font-size="9.971"></path></g></g></svg></g></g><g><g class="cloud-maps_raptor_node" id="6f81c705-9433-4bf0-ab67-585f2685847f"><svg x="-1056" y="201" width="96" height="113.438"><g transform="translate(412.599 -86.957)"><path fill="#3c3c3c" d="M-411.594 145.123v18.088l31.33 18.089h31.33l31.33-18.089v-18.088l-31.33-18.089h-31.33z" fill-rule="evenodd"></path><path fill="#090909" d="m-348.934 181.3 31.33-18.089V181.3l-31.33 18.088z" fill-rule="evenodd"></path><path fill="#232323" d="M-380.264 181.3h31.33v18.088h-31.33zm-31.33-18.089V181.3l31.33 18.088V181.3z" fill-rule="evenodd"></path><path fill="none" stroke="#000" d="m-411.594 163.211 31.33 18.089h31.33l31.33-18.089m-62.66 18.089v18.088m31.33-18.088v18.088" stroke-width="1.005"></path><path fill="none" stroke="#000000" d="M-411.594 145.123V181.3l31.33 18.088h31.33l31.33-18.088v-36.177l-31.33-18.089h-31.33z" stroke-width="2.01"></path><path fill="#3c3c3c" d="M-411.594 125.588v18.088l31.33 18.089h31.33l31.33-18.089v-18.088l-31.33-18.089h-31.33z" fill-rule="evenodd"></path><path fill="#090909" d="m-348.934 161.765 31.33-18.089v18.089l-31.33 18.088z" fill-rule="evenodd"></path><path fill="#232323" d="M-380.264 161.765h31.33v18.088h-31.33zm-31.33-18.089v18.089l31.33 18.088v-18.088z" fill-rule="evenodd"></path><path fill="none" stroke="#000" d="m-411.594 143.676 31.33 18.089h31.33l31.33-18.089m-62.66 18.089v18.088m31.33-18.088v18.088" stroke-width="1.005"></path><path fill="none" stroke="#000000" d="M-411.594 125.588v36.177l31.33 18.088h31.33l31.33-18.088v-36.177l-31.33-18.089h-31.33z" stroke-width="2.01"></path><path fill="#3c3c3c" d="M-411.594 106.05v18.09l31.33 18.088h31.33l31.33-18.089v-18.088l-31.33-18.089h-31.33z" fill-rule="evenodd"></path><path fill="#090909" d="m-348.934 142.228 31.33-18.089v18.089l-31.33 18.088z" fill-rule="evenodd"></path><path fill="#232323" d="M-380.264 142.228h31.33v18.088h-31.33zm-31.33-18.088v18.088l31.33 18.088v-18.088z" fill-rule="evenodd"></path><path fill="none" stroke="#000" d="m-411.594 124.14 31.33 18.088h31.33l31.33-18.089m-62.66 18.089v18.088m31.33-18.088v18.088" stroke-width="1.005"></path><path fill="none" stroke="#000000" d="M-411.594 106.05v36.178l31.33 18.088h31.33l31.33-18.088V106.05l-31.33-18.089h-31.33z" stroke-width="2.01"></path><circle cx="-95.405" cy="325.596" r="21.926" fill="#f4b934" transform="scale(1.22475 .7071) rotate(45)"></circle><g><path fill="#ffffff" d="m-127.434 301.586-.302-.818q-.136-.375-.321-.512-.18-.136-.638-.136h-.545v-1.144h1.007q.887 0 1.364.375.482.375.813 1.26l2.23 5.94h-1.744l-1.085-2.862-1.144 2.862h-1.743z" transform="matrix(3.51718 2.03071 -3.51718 2.03071 1146.824 -241.7)" font-family="Droid Serif" font-size="9.971"></path></g></g></svg></g></g><g><g class="cloud-maps_raptor_node" id="af024cd5-943e-4122-809b-c2a7d500b13e"><svg x="-1662" y="150" width="123" height="108.05"><path fill="#090909" stroke="#000" d="M38.23 22.751v53.738l29.756-16.317v-54.6Z" fill-rule="evenodd" stroke-linejoin="round" stroke-width="1.011"></path><path fill="#232323" stroke="#000" d="m1 8.421 37.23 14.33v53.738L1 44.247Z" fill-rule="evenodd" stroke-linejoin="round"></path><path fill="#3c3c3c" stroke="#000" d="M38.23 22.751 67.986 5.573 13.411 1.255 1.001 8.421z" fill-rule="evenodd" stroke-linejoin="round"></path><path fill="none" stroke="#000000" d="m1 44.247 37.23 32.242 29.756-16.317v-54.6l-55.165-4.55-11.82 6.826z" stroke-width="2"></path><path fill="#3c3c3c" stroke="#000" d="M84.77 13.794 53.747 31.712l56.04 39.295L122 63.955z" fill-rule="evenodd" stroke-width="1.011"></path><path fill="#232323" stroke="#000" d="M53.747 31.712v53.739l55.847 21.494.194-35.938z" fill-rule="evenodd"></path><path fill="#090909" stroke="#000" d="M109.788 71.007 122 63.955v35.823l-12.406 7.168z" fill-rule="evenodd"></path><path fill="none" stroke="#000000" d="M84.77 13.794 53.747 31.712v53.739l55.847 21.494L122 99.778V63.955z" stroke-width="2"></path><path fill="#f4b934" d="M79.713 77.218q.615 1.415.18 2.416-.435 1-1.666 1-1.23 0-2.536-1-1.306-1.001-1.92-2.416-.616-1.415-.18-2.416.435-1.001 1.665-1.001t2.536 1.001q1.306 1 1.921 2.416zm5.943-6.835q.302.695.08 1.201-.22.507-.823.508-.603 0-1.265-.508-.663-.508-.964-1.2-.308-.708-.09-1.209.218-.5.833-.5t1.268.5q.654.5.961 1.208zm5.943 13.67q.302.694.081 1.201-.22.507-.824.508-.603 0-1.265-.508-.662-.508-.964-1.201-.307-.707-.09-1.208.218-.501.833-.501t1.269.5q.653.502.96 1.209zm-6.9-5.62-1.074-2.47q-.059-.134-.195-.26t-.247-.14l-1.939-.321q-.33-.467-.812-1.015.116-.64.377-1.535.023-.134-.034-.267-.07-.16-.19-.254-.442-.4-1.478-1.194-1.035-.794-1.257-.795-.127 0-.203.093l-.812 1.202q-.54-.254-1.074-.415-.755-1.442-1.167-2.069-.22-.32-.488-.32h-2.159q-.127 0-.188.1-.062.1-.015.233l.62 2.043q-.336.133-.69.414l-1.886-1.188q-.122-.093-.273-.093-.127 0-.197.107-.9 1.775-.743 2.136.053.12.192.253.197.187.783.707.586.52.9.814-.012.588.069 1.095l-1.625.32q-.11.016-.142.127-.03.114.03.26l1.074 2.47q.058.134.194.26.136.127.247.141l1.939.32q.33.468.812 1.015-.116.641-.377 1.536-.019.146.034.267.07.16.197.266.43.401 1.468 1.188 1.039.788 1.26.788.127 0 .203-.093l.813-1.201q.499.24 1.08.427.754 1.442 1.16 2.056.221.32.488.32h2.159q.127 0 .189-.1.06-.1.015-.234l-.621-2.042q.336-.134.69-.414l1.886 1.187q.134.093.273.093.127 0 .197-.107.9-1.775.743-2.135-.053-.12-.192-.254-.232-.214-.8-.72-.57-.507-.871-.8-.012-.642-.082-1.095l1.631-.308q.105-.026.136-.14.03-.114-.03-.26zm4.335-7.115-.812-1.87q-.093-.213-1.91-.413-.296-.36-.65-.695-.064-1.508-.21-1.842-.022-.053-.086-.093-1.829-.948-1.851-.948-.093 0-.261.628-.169.627-.21.907-.244-.026-.36-.026-.116 0-.337.026-.284-.28-.998-.907-.714-.628-.807-.628-.022 0-1.027.948-.03.04-.007.093.145.333 1.393 1.842-.064.333-.047.695-1.643.2-1.55.414l.813 1.869q.093.213 1.91.414.319.387.65.694.063 1.509.209 1.842.022.053.086.093.058.027.523.267.464.24.882.454.418.214.442.214.093 0 .263-.62.171-.621.213-.902.244.027.36.027.116 0 .337-.027 1.004.948 1.718 1.495l.081.027q.046 0 1.033-.934.03-.04.008-.093-.145-.334-1.393-1.843.064-.307.046-.694 1.643-.2 1.55-.414zm5.944 13.67-.813-1.87q-.093-.214-1.91-.414-.295-.36-.65-.694-.064-1.509-.209-1.842-.022-.053-.087-.093-1.828-.948-1.851-.948-.093 0-.26.627-.169.627-.21.908-.244-.027-.36-.027-.117 0-.337.027-.285-.28-.999-.908-.714-.627-.806-.627-.023 0-1.027.948-.03.04-.008.093.145.333 1.393 1.842-.063.333-.046.694-1.643.2-1.55.414l.812 1.87q.093.213 1.91.413.32.388.65.695.064 1.508.21 1.842.022.053.086.093.058.026.522.267.465.24.883.453.418.214.441.214.093 0 .264-.62.17-.62.212-.901.244.026.36.026.117 0 .337-.026 1.005.948 1.718 1.495l.082.026q.046 0 1.033-.934.03-.04.007-.093-.144-.333-1.393-1.842.064-.307.047-.694 1.643-.2 1.55-.414z"></path></svg></g></g></g><g pointer-events="auto"></g><g pointer-events="auto"></g><g pointer-events="auto"><g><g class="cloud-maps_raptor_node" id="86545966-1763-45db-8ea6-bd787481775f"><svg x="-1312" y="-37" overflow="visible"><text stroke="#ffffff" stroke-width="4" font-family="Open Sans" y="36.5" font-size="25pt" fill="#000000" font-weight="bold" transform="matrix(0.707 0.409 -0.707 0.409 0 0)" xml:space="preserve"><tspan x="8" dy="0">AuthLambda</tspan></text><text font-family="Open Sans" y="36.5" font-size="25pt" fill="#000000" font-weight="bold" transform="matrix(0.707 0.409 -0.707 0.409 0 0)" xml:space="preserve"><tspan x="8" dy="0">AuthLambda</tspan></text></svg></g></g><g><g class="cloud-maps_raptor_node" id="430c6176-9457-4d99-8f71-f56920890c35"><svg x="-1088" y="277" overflow="visible"><text stroke="#ffffff" stroke-width="4" font-family="Open Sans" y="36.5" font-size="25pt" fill="#000000" font-weight="bold" transform="matrix(0.707 0.409 -0.707 0.409 0 0)" xml:space="preserve"><tspan x="8" dy="0">/myCoolRoute1 Handler</tspan></text><text font-family="Open Sans" y="36.5" font-size="25pt" fill="#000000" font-weight="bold" transform="matrix(0.707 0.409 -0.707 0.409 0 0)" xml:space="preserve"><tspan x="8" dy="0">/myCoolRoute1 Handler</tspan></text></svg></g></g><g><g class="cloud-maps_raptor_node" id="2b701349-b1aa-464c-8f0b-f01f8981bb46"><svg x="-1678" y="197" overflow="visible"><text stroke="#ffffff" stroke-width="4" font-family="Open Sans" y="36.5" font-size="25pt" fill="#000000" font-weight="bold" transform="matrix(0.707 0.409 -0.707 0.409 0 0)" xml:space="preserve"><tspan x="8" dy="0">API Gateway</tspan></text><text font-family="Open Sans" y="36.5" font-size="25pt" fill="#000000" font-weight="bold" transform="matrix(0.707 0.409 -0.707 0.409 0 0)" xml:space="preserve"><tspan x="8" dy="0">API Gateway</tspan></text></svg></g></g></g></g></svg>